<mxfile host="app.diagrams.net" agent="Mozilla/5.0 (Windows NT 10.0; Win64; x64) AppleWebKit/537.36 (KHTML, like Gecko) Chrome/130.0.0.0 Safari/537.36" version="24.8.2">
  <diagram name="Page-1" id="WxaXO5bPdAIlRWJ79rzV">
    <mxGraphModel dx="1434" dy="746" grid="1" gridSize="10" guides="1" tooltips="1" connect="1" arrows="1" fold="1" page="1" pageScale="1" pageWidth="850" pageHeight="1100" math="0" shadow="0">
      <root>
        <mxCell id="0" />
        <mxCell id="1" parent="0" />
        <mxCell id="HocpefJvtkjRnLgMv3Pd-8" style="edgeStyle=orthogonalEdgeStyle;rounded=0;orthogonalLoop=1;jettySize=auto;html=1;entryX=0.5;entryY=0;entryDx=0;entryDy=0;" edge="1" parent="1" source="HocpefJvtkjRnLgMv3Pd-1" target="HocpefJvtkjRnLgMv3Pd-3">
          <mxGeometry relative="1" as="geometry" />
        </mxCell>
        <mxCell id="HocpefJvtkjRnLgMv3Pd-9" value="write" style="edgeLabel;html=1;align=center;verticalAlign=middle;resizable=0;points=[];" vertex="1" connectable="0" parent="HocpefJvtkjRnLgMv3Pd-8">
          <mxGeometry x="-0.16" y="-1" relative="1" as="geometry">
            <mxPoint as="offset" />
          </mxGeometry>
        </mxCell>
        <mxCell id="HocpefJvtkjRnLgMv3Pd-11" style="edgeStyle=orthogonalEdgeStyle;rounded=0;orthogonalLoop=1;jettySize=auto;html=1;entryX=0.5;entryY=0;entryDx=0;entryDy=0;" edge="1" parent="1" source="HocpefJvtkjRnLgMv3Pd-1" target="HocpefJvtkjRnLgMv3Pd-2">
          <mxGeometry relative="1" as="geometry" />
        </mxCell>
        <mxCell id="HocpefJvtkjRnLgMv3Pd-12" style="edgeStyle=orthogonalEdgeStyle;rounded=0;orthogonalLoop=1;jettySize=auto;html=1;entryX=0;entryY=0.5;entryDx=0;entryDy=0;" edge="1" parent="1" source="HocpefJvtkjRnLgMv3Pd-1" target="HocpefJvtkjRnLgMv3Pd-4">
          <mxGeometry relative="1" as="geometry" />
        </mxCell>
        <mxCell id="HocpefJvtkjRnLgMv3Pd-1" value="user" style="rounded=0;whiteSpace=wrap;html=1;" vertex="1" parent="1">
          <mxGeometry x="320" y="340" width="120" height="60" as="geometry" />
        </mxCell>
        <mxCell id="HocpefJvtkjRnLgMv3Pd-10" style="edgeStyle=orthogonalEdgeStyle;rounded=0;orthogonalLoop=1;jettySize=auto;html=1;entryX=0;entryY=0.5;entryDx=0;entryDy=0;" edge="1" parent="1" source="HocpefJvtkjRnLgMv3Pd-2" target="HocpefJvtkjRnLgMv3Pd-3">
          <mxGeometry relative="1" as="geometry" />
        </mxCell>
        <mxCell id="HocpefJvtkjRnLgMv3Pd-2" value="comment" style="rounded=0;whiteSpace=wrap;html=1;" vertex="1" parent="1">
          <mxGeometry x="40" y="540" width="120" height="60" as="geometry" />
        </mxCell>
        <mxCell id="HocpefJvtkjRnLgMv3Pd-20" style="edgeStyle=orthogonalEdgeStyle;rounded=0;orthogonalLoop=1;jettySize=auto;html=1;entryX=0;entryY=0.5;entryDx=0;entryDy=0;" edge="1" parent="1" source="HocpefJvtkjRnLgMv3Pd-3" target="HocpefJvtkjRnLgMv3Pd-18">
          <mxGeometry relative="1" as="geometry" />
        </mxCell>
        <mxCell id="HocpefJvtkjRnLgMv3Pd-3" value="articles" style="rounded=0;whiteSpace=wrap;html=1;" vertex="1" parent="1">
          <mxGeometry x="320" y="540" width="120" height="60" as="geometry" />
        </mxCell>
        <mxCell id="HocpefJvtkjRnLgMv3Pd-4" value="team id" style="rounded=0;whiteSpace=wrap;html=1;" vertex="1" parent="1">
          <mxGeometry x="600" y="340" width="120" height="60" as="geometry" />
        </mxCell>
        <mxCell id="HocpefJvtkjRnLgMv3Pd-13" value="compettion id" style="rounded=0;whiteSpace=wrap;html=1;" vertex="1" parent="1">
          <mxGeometry x="600" y="700" width="120" height="60" as="geometry" />
        </mxCell>
        <mxCell id="HocpefJvtkjRnLgMv3Pd-21" style="edgeStyle=orthogonalEdgeStyle;rounded=0;orthogonalLoop=1;jettySize=auto;html=1;entryX=0.5;entryY=1;entryDx=0;entryDy=0;" edge="1" parent="1" source="HocpefJvtkjRnLgMv3Pd-18" target="HocpefJvtkjRnLgMv3Pd-4">
          <mxGeometry relative="1" as="geometry" />
        </mxCell>
        <mxCell id="HocpefJvtkjRnLgMv3Pd-22" style="edgeStyle=orthogonalEdgeStyle;rounded=0;orthogonalLoop=1;jettySize=auto;html=1;entryX=0.5;entryY=0;entryDx=0;entryDy=0;" edge="1" parent="1" source="HocpefJvtkjRnLgMv3Pd-18" target="HocpefJvtkjRnLgMv3Pd-13">
          <mxGeometry relative="1" as="geometry" />
        </mxCell>
        <mxCell id="HocpefJvtkjRnLgMv3Pd-18" value="article&amp;nbsp;&lt;span style=&quot;background-color: initial;&quot;&gt;tag id&lt;/span&gt;" style="rounded=0;whiteSpace=wrap;html=1;" vertex="1" parent="1">
          <mxGeometry x="600" y="540" width="120" height="60" as="geometry" />
        </mxCell>
      </root>
    </mxGraphModel>
  </diagram>
</mxfile>
